<?xml version="1.0" encoding="UTF-8" standalone="no"?>
<svg width="1200" height="800" viewBox="0 0 1200 800" xmlns="http://www.w3.org/2000/svg">
  <defs>
    <linearGradient id="blueGradient" x1="0%" y1="0%" x2="100%" y2="100%">
      <stop offset="0%" style="stop-color:#0047AB;stop-opacity:0.1" />
      <stop offset="100%" style="stop-color:#1E3A8A;stop-opacity:0.05" />
    </linearGradient>
  </defs>
  
  <!-- Background -->
  <rect width="1200" height="800" fill="#FFFFFF" />
  
  <!-- Blue gradient overlay -->
  <rect width="1200" height="800" fill="url(#blueGradient)" />
  
  <!-- Grid pattern -->
  <g stroke="#0047AB" stroke-width="0.5" stroke-opacity="0.1">
    <g id="vertical-lines">
      <line x1="100" y1="0" x2="100" y2="800" />
      <line x1="200" y1="0" x2="200" y2="800" />
      <line x1="300" y1="0" x2="300" y2="800" />
      <line x1="400" y1="0" x2="400" y2="800" />
      <line x1="500" y1="0" x2="500" y2="800" />
      <line x1="600" y1="0" x2="600" y2="800" />
      <line x1="700" y1="0" x2="700" y2="800" />
      <line x1="800" y1="0" x2="800" y2="800" />
      <line x1="900" y1="0" x2="900" y2="800" />
      <line x1="1000" y1="0" x2="1000" y2="800" />
      <line x1="1100" y1="0" x2="1100" y2="800" />
    </g>
    <g id="horizontal-lines">
      <line x1="0" y1="100" x2="1200" y2="100" />
      <line x1="0" y1="200" x2="1200" y2="200" />
      <line x1="0" y1="300" x2="1200" y2="300" />
      <line x1="0" y1="400" x2="1200" y2="400" />
      <line x1="0" y1="500" x2="1200" y2="500" />
      <line x1="0" y1="600" x2="1200" y2="600" />
      <line x1="0" y1="700" x2="1200" y2="700" />
    </g>
  </g>
  
  <!-- Corporate Building Outline -->
  <g fill="none" stroke="#0047AB" stroke-width="1" stroke-opacity="0.2">
    <rect x="400" y="200" width="400" height="500" rx="5" />
    
    <!-- Windows -->
    <g id="windows">
      <!-- Row 1 -->
      <rect x="450" y="250" width="60" height="80" />
      <rect x="570" y="250" width="60" height="80" />
      <rect x="690" y="250" width="60" height="80" />
      
      <!-- Row 2 -->
      <rect x="450" y="350" width="60" height="80" />
      <rect x="570" y="350" width="60" height="80" />
      <rect x="690" y="350" width="60" height="80" />
      
      <!-- Row 3 -->
      <rect x="450" y="450" width="60" height="80" />
      <rect x="570" y="450" width="60" height="80" />
      <rect x="690" y="450" width="60" height="80" />
      
      <!-- Row 4 -->
      <rect x="450" y="550" width="60" height="80" />
      <rect x="570" y="550" width="60" height="80" />
      <rect x="690" y="550" width="60" height="80" />
    </g>
    
    <!-- Entrance -->
    <rect x="550" y="650" width="100" height="50" />
  </g>
  
  <!-- Factory/Production Detail -->
  <g stroke="#0047AB" stroke-width="1" stroke-opacity="0.15" fill="none">
    <circle cx="200" cy="500" r="80" />
    <circle cx="200" cy="500" r="60" />
    <circle cx="200" cy="500" r="40" />
    <line x1="120" y1="500" x2="280" y2="500" />
    <line x1="200" y1="420" x2="200" y2="580" />
    
    <rect x="100" y="600" width="200" height="40" rx="5" />
    <rect x="130" y="640" width="140" height="20" rx="2" />
    
    <rect x="900" y="550" width="150" height="100" rx="5" />
    <rect x="925" y="650" width="100" height="30" rx="2" />
    
    <path d="M900,450 C950,400 1000,400 1050,450" />
    <path d="M900,400 C950,350 1000,350 1050,400" />
    <path d="M900,350 C950,300 1000,300 1050,350" />
  </g>
</svg>