<?xml version="1.0" encoding="UTF-8" standalone="no"?>
<svg width="1200" height="600" viewBox="0 0 1200 600" xmlns="http://www.w3.org/2000/svg">
  <defs>
    <linearGradient id="grad1" x1="0%" y1="0%" x2="100%" y2="0%">
      <stop offset="0%" style="stop-color:#0047AB;stop-opacity:1" />
      <stop offset="100%" style="stop-color:#1E3A8A;stop-opacity:1" />
    </linearGradient>
  </defs>
  <rect width="1200" height="600" fill="url(#grad1)" />
  
  <!-- Car silhouette -->
  <path d="M900,400 Q800,380 700,390 Q650,395 600,410 Q550,425 500,425 Q450,425 400,410 Q350,395 300,390 Q250,385 200,395 Q150,405 100,430 L100,500 L900,500 Z" fill="#000" fill-opacity="0.7"/>
  
  <!-- Headlight illustration -->
  <circle cx="250" cy="410" r="30" fill="#FFCC00" fill-opacity="0.8">
    <animate attributeName="opacity" values="0.6;1;0.6" dur="3s" repeatCount="indefinite" />
  </circle>
  <circle cx="250" cy="410" r="15" fill="#FFFFFF" fill-opacity="0.9" />
  
  <circle cx="750" cy="410" r="30" fill="#FFCC00" fill-opacity="0.8">
    <animate attributeName="opacity" values="0.6;1;0.6" dur="3s" repeatCount="indefinite" />
  </circle>
  <circle cx="750" cy="410" r="15" fill="#FFFFFF" fill-opacity="0.9" />
  
  <!-- Light beams -->
  <path d="M250,410 L150,300 L100,250 L50,200" stroke="#FFCC00" stroke-width="2" fill="none" opacity="0.5">
    <animate attributeName="opacity" values="0.2;0.5;0.2" dur="4s" repeatCount="indefinite" />
  </path>
  <path d="M250,410 L150,350 L100,320 L50,300" stroke="#FFCC00" stroke-width="2" fill="none" opacity="0.5">
    <animate attributeName="opacity" values="0.2;0.5;0.2" dur="3s" repeatCount="indefinite" />
  </path>
  
  <path d="M750,410 L850,300 L900,250 L950,200" stroke="#FFCC00" stroke-width="2" fill="none" opacity="0.5">
    <animate attributeName="opacity" values="0.2;0.5;0.2" dur="4s" repeatCount="indefinite" />
  </path>
  <path d="M750,410 L850,350 L900,320 L950,300" stroke="#FFCC00" stroke-width="2" fill="none" opacity="0.5">
    <animate attributeName="opacity" values="0.2;0.5;0.2" dur="3s" repeatCount="indefinite" />
  </path>
</svg>