<?xml version="1.0" encoding="UTF-8" standalone="no"?>
<svg width="500" height="400" viewBox="0 0 500 400" xmlns="http://www.w3.org/2000/svg">
  <defs>
    <linearGradient id="chrome" x1="0%" y1="0%" x2="100%" y2="100%">
      <stop offset="0%" style="stop-color:#FFFFFF;stop-opacity:0.9" />
      <stop offset="50%" style="stop-color:#DDDDDD;stop-opacity:0.8" />
      <stop offset="100%" style="stop-color:#999999;stop-opacity:0.9" />
    </linearGradient>
    <radialGradient id="foglight" cx="50%" cy="50%" r="50%" fx="50%" fy="50%">
      <stop offset="0%" style="stop-color:#FFFFFF;stop-opacity:1" />
      <stop offset="70%" style="stop-color:#FFFFAA;stop-opacity:0.8" />
      <stop offset="100%" style="stop-color:#FFDD44;stop-opacity:0.6" />
    </radialGradient>
    <filter id="glow" x="-50%" y="-50%" width="200%" height="200%">
      <feGaussianBlur stdDeviation="8" result="blur" />
      <feComposite in="SourceGraphic" in2="blur" operator="over" />
    </filter>
  </defs>
  
  <!-- Round fog light housing -->
  <circle cx="250" cy="180" r="100" fill="#333333" />
  <circle cx="250" cy="180" r="95" fill="url(#chrome)" />
  
  <!-- Fog light lens -->
  <circle cx="250" cy="180" r="80" fill="#EEEEEE" fill-opacity="0.7" />
  <circle cx="250" cy="180" r="70" fill="url(#foglight)" filter="url(#glow)" />
  
  <!-- Light bulb suggestion -->
  <circle cx="250" cy="180" r="10" fill="#FFFFFF" />
  <circle cx="250" cy="180" r="5" fill="#FFFF99">
    <animate attributeName="opacity" values="0.7;1;0.7" dur="2s" repeatCount="indefinite" />
  </circle>
  
  <!-- Light pattern lines -->
  <path d="M200,180 L300,180" stroke="#FFFFFF" stroke-width="1" stroke-opacity="0.4" />
  <path d="M250,130 L250,230" stroke="#FFFFFF" stroke-width="1" stroke-opacity="0.4" />
  <path d="M215,145 L285,215" stroke="#FFFFFF" stroke-width="1" stroke-opacity="0.4" />
  <path d="M215,215 L285,145" stroke="#FFFFFF" stroke-width="1" stroke-opacity="0.4" />
  
  <!-- Mounting bracket -->
  <rect x="160" y="160" width="20" height="40" rx="3" ry="3" fill="#666666" />
  <rect x="320" y="160" width="20" height="40" rx="3" ry="3" fill="#666666" />
  
  <!-- Fog light surround -->
  <circle cx="250" cy="180" r="110" fill="none" stroke="#444444" stroke-width="5" />
  
  <!-- Light effect -->
  <path d="M180,180 Q250,140 320,180 Q250,220 180,180 Z" fill="#FFEE99" fill-opacity="0.3">
    <animate attributeName="opacity" values="0.2;0.4;0.2" dur="3s" repeatCount="indefinite" />
  </path>
  
  <!-- Product name -->
  <text x="250" y="310" font-family="Arial, sans-serif" font-size="24" font-weight="bold" text-anchor="middle" fill="#333333">Farol de Neblina</text>
</svg>